<svg width="1864" height="408" viewBox="0 0 1864 408" fill="none" xmlns="http://www.w3.org/2000/svg">
<path d="M0.00582229 208H171.259C288.447 208 323.337 193.884 323.337 153.934V136.09C323.337 119.843 315.879 108.923 295.638 102.265C314.015 95.6066 320.141 85.2195 320.141 69.5057V54.0583C320.141 14.3744 287.648 0.258603 170.46 0.258603H0.00582229V208ZM119.59 83.8878V49.5306H168.33C191.767 49.5306 200.556 52.993 200.556 63.9127V69.2394C200.556 80.4255 191.767 83.8878 168.33 83.8878H119.59ZM119.59 158.994V121.175H171.259C194.697 121.175 203.752 125.436 203.752 136.356V144.346C203.752 155.532 194.697 158.994 171.259 158.994H119.59ZM552.551 208H676.131L563.737 0.258603H426.042L315.247 208H431.902L443.62 184.563H541.898L552.551 208ZM470.254 130.763L494.757 81.7571L517.395 130.763H470.254ZM798.433 154.467V0.258603H678.848V208H949.445V154.467H798.433ZM1080.11 154.467V0.258603H960.529V208H1231.13V154.467H1080.11ZM1242.21 208H1526.39V154.467H1361.79V124.903H1517.07V80.4255H1361.79V54.0583H1523.46V0.258603H1242.21V208ZM1541.04 208H1648.9V123.039L1760.76 208H1863.84V0.258603H1755.97V85.4858L1644.11 0.258603H1541.04V208ZM279.442 286.24V278.163C279.442 245.166 244.368 218.629 143.76 218.629C43.3833 218.629 8.07826 238.705 8.07826 274.01V282.548C8.07826 357.08 178.142 318.083 178.142 343.928V348.081C178.142 355.696 169.605 358.926 143.76 358.926C117.916 358.926 109.378 355.465 109.378 347.85V340.005H5.77075V348.081C5.77075 381.309 32.7687 407.615 143.76 407.615C254.752 407.615 281.75 387.77 281.75 352.235V343.697C281.75 269.164 109.609 308.161 109.609 282.317V278.163C109.609 270.548 118.147 267.318 143.76 267.318C169.374 267.318 177.912 270.779 177.912 278.394V286.24H279.442ZM567.635 223.014H288.656V269.625H376.342V403H479.95V269.625H567.635V223.014ZM748.289 223.014V342.082C748.289 354.773 739.982 358.926 714.599 358.926C689.447 358.926 681.14 354.773 681.14 342.082V223.014H577.532V350.389C577.532 385.924 610.299 407.615 714.599 407.615C819.13 407.615 851.896 385.924 851.896 350.389V223.014H748.289ZM1005.01 223.014H870.479V403H1005.01C1114.85 403 1147.61 383.386 1147.61 348.081V278.163C1147.61 242.858 1114.85 223.014 1005.01 223.014ZM1044 286.47V339.774C1044 352.004 1035.7 356.619 1005.01 356.619H974.087V269.625H1005.01C1035.7 269.625 1044 274.24 1044 286.47ZM1163.43 223.014V403H1267.03V223.014H1163.43ZM1425.62 218.629C1315.79 218.629 1283.02 240.551 1283.02 275.856V350.389C1283.02 385.694 1315.79 407.615 1425.62 407.615C1535.46 407.615 1568.23 385.694 1568.23 350.389V275.856C1568.23 240.551 1535.46 218.629 1425.62 218.629ZM1464.62 284.163V342.082C1464.62 354.311 1456.31 358.926 1425.62 358.926C1394.93 358.926 1386.63 354.311 1386.63 342.082V284.163C1386.63 271.933 1394.93 267.318 1425.62 267.318C1456.31 267.318 1464.62 271.933 1464.62 284.163ZM1855.05 286.24V278.163C1855.05 245.166 1819.97 218.629 1719.36 218.629C1618.99 218.629 1583.68 238.705 1583.68 274.01V282.548C1583.68 357.08 1753.75 318.083 1753.75 343.928V348.081C1753.75 355.696 1745.21 358.926 1719.36 358.926C1693.52 358.926 1684.98 355.465 1684.98 347.85V340.005H1581.37V348.081C1581.37 381.309 1608.37 407.615 1719.36 407.615C1830.35 407.615 1857.35 387.77 1857.35 352.235V343.697C1857.35 269.164 1685.21 308.161 1685.21 282.317V278.163C1685.21 270.548 1693.75 267.318 1719.36 267.318C1744.98 267.318 1753.51 270.779 1753.51 278.394V286.24H1855.05Z" fill="#D3CCC1"/>
</svg>
